<?xml version="1.0" encoding="utf-8"?>
<!-- Generator: Adobe Illustrator 21.1.0, SVG Export Plug-In . SVG Version: 6.00 Build 0)  -->
<svg version="1.1" id="Layer_1" xmlns="http://www.w3.org/2000/svg" xmlns:xlink="http://www.w3.org/1999/xlink" x="0px" y="0px"
	 viewBox="0 0 220.2 40" style="enable-background:new 0 0 220.2 40;" xml:space="preserve">
<style type="text/css">
	.st0{fill-rule:evenodd;clip-rule:evenodd;fill:#191919;}
</style>
<g>
	<polygon class="st0" points="32,40 32,0 54.6,0 54.6,11 44.2,11 44.2,14.7 53.6,14.7 53.6,25.2 44.2,25.2 44.2,29 54.9,29 54.9,40 
		32,40 	"/>
	<polygon class="st0" points="64,40 64,12.6 57.1,13 57.1,0 82.6,0 82.6,13 75.9,12.6 75.9,40 64,40 	"/>
	<path class="st0" d="M97,30.4l0-6.6h2.6c1,0,2,0.1,2.7,1c0.9,1.1,1,2.8,0.4,4.1c-0.3,0.6-0.7,1.1-1.3,1.3c-0.6,0.2-1.3,0.3-2,0.3
		H97L97,30.4z M97,15.3l0-5.7h1.9c1.1,0,2.1,0.2,2.6,1.2c0.4,0.9,0.5,2,0.1,2.9c-0.2,0.6-0.6,1.1-1.2,1.4c-0.5,0.2-1,0.3-1.5,0.3H97
		L97,15.3L97,15.3z M85.8,0l14.6,0c1.7,0,3.4,0.2,5.1,0.6c3,0.7,5.5,2.9,6.6,5.7c0.8,2.1,1,4.4,0.8,6.6c-0.3,2.1-1.1,4-2.7,5.4
		c-0.5,0.4-1,0.7-1.5,1c0.7,0.3,1.3,0.7,1.9,1.1c1.9,1.4,3.3,3.6,3.8,5.9c0.8,4.1-0.5,8.7-3.8,11.4c-0.9,0.7-1.9,1.3-3,1.6
		c-1.5,0.5-3.1,0.6-4.6,0.6l-17,0V0L85.8,0L85.8,0z"/>
	<path class="st0" d="M130.1,25.5l2.4-12.2l2.4,12.2H130.1L130.1,25.5z M127.8,35l-0.9,5l-12.8,0l11.6-40l13.4,0l11.9,40h-12.9
		l-1.1-5H127.8L127.8,35L127.8,35z"/>
	<path class="st0" d="M165,17.8V11h2.1c0.7,0,1.4,0.3,1.8,0.8c0.9,1.1,1.2,2.8,0.7,4.1c-0.3,0.7-0.8,1.4-1.5,1.7
		c-0.4,0.2-0.9,0.2-1.4,0.3L165,17.8L165,17.8z M153.2,40l0-40l15.1,0c2.2,0,4.3,0.2,6.3,1.2c2.7,1.4,5,3.7,6.1,6.5
		c1,2.6,1.3,5.4,0.9,8.2c-0.2,1.6-0.5,3.1-1.2,4.5c-0.8,1.6-2.2,2.8-3.8,3.5c-0.3,0.1-0.6,0.2-1,0.4l8.9,15.7l-14,0L165,26.5V40
		H153.2L153.2,40L153.2,40z"/>
	<path class="st0" d="M186.7,40V0h11.6l7.8,15.1c0.6,1.2,1.2,2.4,1.8,3.6c0.4,0.9,0.8,1.8,1.2,2.7c-0.1-1.3-0.3-2.5-0.4-3.8
		c-0.1-1.6-0.1-3.3-0.1-4.9V0h11.6v40l-11.6,0l-8.3-15.8c-0.8-1.6-1.5-3.2-2.2-4.8c0.2,2.3,0.4,4.6,0.4,7V40L186.7,40L186.7,40z"/>
	<path class="st0" d="M11.8,17.9l0-6.9h2.2c1.3,0,2.6,0.5,3.1,1.8c0.4,1.1,0.4,2.4-0.2,3.5c-0.6,1.1-1.8,1.6-3,1.6H11.8L11.8,17.9z
		 M0,40L0,0h16c4.3,0,8.5,1.8,10.8,5.5c1.6,2.6,2.4,5.8,2.4,8.9c0,3.1-0.6,6.4-2.3,9C25,26.3,22,28,18.5,28h-6.7v12H0L0,40L0,40z"/>
</g>
</svg>
